
<svg xmlns="http://www.w3.org/2000/svg" width="100" height="100" viewBox="0 0 24 24">
  <path fill="#25D366" d="M20.52 3.48A11.86 11.86 0 0 0 12 0a11.86 11.86 0 0 0-8.52 3.48A11.86 11.86 0 0 0 0 12c0 2.1.54 4.13 1.56 5.94L0 24l6.2-1.62A11.84 11.84 0 0 0 12 24a11.86 11.86 0 0 0 8.52-3.48A11.86 11.86 0 0 0 24 12c0-3.18-1.24-6.16-3.48-8.52z"/>
  <path fill="#fff" d="M17.01 14.69c-.29-.14-1.72-.85-1.99-.95-.27-.1-.47-.14-.67.14s-.77.95-.95 1.15c-.17.19-.34.22-.63.07-.29-.14-1.21-.45-2.3-1.43-.85-.76-1.42-1.7-1.59-1.99-.17-.29-.02-.44.13-.58.13-.13.29-.34.43-.51.14-.17.19-.29.29-.48.1-.19.05-.36-.02-.51-.07-.14-.67-1.6-.92-2.2-.24-.58-.48-.5-.67-.51-.17-.01-.36-.01-.56-.01s-.51.07-.77.36c-.26.29-1 1-1 2.44 0 1.43 1.03 2.81 1.18 3 .14.19 2.03 3.11 4.93 4.36.69.3 1.23.48 1.65.61.69.22 1.31.19 1.8.12.55-.08 1.72-.7 1.96-1.39.24-.69.24-1.29.17-1.39-.07-.1-.26-.17-.55-.29z"/>
</svg>
